<?xml version="1.0" standalone="no"?>
<!DOCTYPE svg PUBLIC "-//W3C//DTD SVG 20010904//EN"
 "http://www.w3.org/TR/2001/REC-SVG-20010904/DTD/svg10.dtd">
<svg version="1.0" xmlns="http://www.w3.org/2000/svg"
 width="800.000000pt" height="587.000000pt" viewBox="0 0 800.000000 587.000000"
 preserveAspectRatio="xMidYMid meet">
<metadata>
Created by potrace 1.16, written by Peter Selinger 2001-2019
</metadata>
<g transform="translate(0.000000,587.000000) scale(0.100000,-0.100000)"
fill="#000000" stroke="none">
<path d="M0 5581 c0 -250 2 -292 16 -305 19 -20 28 -20 71 1 60 28 72 71 73
253 0 179 7 200 63 213 40 10 53 6 202 -53 77 -30 84 -31 185 -26 161 9 180
-9 139 -126 -23 -66 -23 -67 -4 -108 10 -23 45 -66 77 -96 66 -61 99 -68 154
-35 45 27 69 72 103 195 46 164 40 227 -34 314 -50 60 -70 62 -582 62 l-463 0
0 -289z"/>
<path d="M1316 5847 c-7 -29 3 -63 38 -141 23 -49 27 -71 24 -127 -1 -37 1
-72 6 -76 12 -13 198 -16 229 -4 19 8 34 27 53 68 37 85 67 113 123 113 59 0
75 -16 107 -113 17 -52 39 -93 61 -118 40 -44 125 -96 187 -114 l41 -12 -69
-12 c-39 -7 -134 -11 -212 -10 -120 2 -146 0 -168 -14 -35 -23 -35 -70 1 -125
42 -65 76 -76 202 -68 58 4 126 11 151 16 37 7 57 4 114 -16 113 -39 196 -29
196 24 0 48 -93 172 -141 187 -17 6 -17 7 2 26 10 10 19 24 19 30 0 5 -22 34
-49 62 -27 29 -81 98 -120 155 -59 86 -71 110 -71 143 0 35 -7 48 -51 95 l-52
54 -307 0 -308 0 -6 -23z"/>
<path d="M2268 5853 c-51 -59 -49 -96 8 -169 35 -46 44 -64 39 -84 -3 -14 -8
-46 -12 -72 -6 -52 0 -58 85 -83 26 -8 63 -26 82 -40 28 -21 45 -25 100 -25
74 0 97 12 129 64 29 47 27 86 -6 119 -37 34 -111 67 -172 74 -61 7 -69 23
-33 64 l28 32 160 -10 c176 -11 219 -24 230 -70 7 -28 -2 -39 -89 -106 -42
-32 -40 -47 9 -70 59 -29 116 -22 243 30 191 76 202 83 274 177 82 106 90 121
82 157 l-7 29 -567 0 c-528 0 -569 -1 -583 -17z"/>
<path d="M3589 5809 c-24 -62 -36 -77 -148 -182 -76 -71 -77 -96 -12 -184 29
-40 34 -43 79 -43 46 0 92 20 137 60 14 12 41 19 87 22 75 4 109 26 134 85 22
52 17 72 -31 121 -51 51 -54 63 -24 93 23 23 43 20 101 -17 59 -37 82 -39 134
-10 117 65 163 -7 67 -105 -43 -46 -40 -68 12 -92 78 -35 90 -43 105 -69 21
-39 3 -53 -65 -51 -72 2 -79 -8 -71 -95 l7 -69 -47 -63 c-78 -103 -136 -124
-196 -71 -18 15 -48 36 -66 45 -18 9 -74 44 -124 77 -92 60 -134 72 -158 44
-10 -12 -10 -33 0 -102 12 -84 14 -90 55 -129 24 -23 64 -50 90 -60 42 -15 53
-16 94 -4 89 25 95 24 167 -20 61 -36 75 -41 114 -37 47 5 47 6 113 97 31 42
118 109 278 214 44 29 70 54 79 76 13 31 12 37 -19 95 -39 73 -37 80 46 140
80 58 123 109 123 145 0 25 -8 35 -47 61 -27 16 -84 42 -128 57 -73 24 -91 26
-210 23 -156 -3 -192 -3 -451 5 l-202 5 -23 -62z"/>
<path d="M5077 5835 c-32 -23 -72 -39 -122 -50 -42 -10 -85 -25 -97 -35 l-23
-18 23 -54 c33 -80 30 -113 -18 -164 -46 -50 -50 -76 -20 -134 29 -56 76 -88
156 -105 75 -15 90 -27 129 -105 29 -57 89 -117 129 -129 17 -5 74 -12 128
-14 106 -6 122 -12 187 -69 52 -46 121 -68 209 -68 79 0 118 17 172 77 73 78
120 214 106 306 -9 61 -52 123 -101 147 -63 30 -91 17 -198 -93 -51 -52 -108
-103 -127 -112 -19 -10 -65 -20 -102 -23 -82 -6 -111 9 -138 73 -22 52 -53 70
-135 80 -88 11 -119 27 -149 77 -54 92 -53 95 74 216 122 117 171 152 211 152
35 0 45 -15 51 -72 7 -64 21 -78 75 -78 52 0 68 8 142 68 l55 45 126 -8 c69
-5 145 -10 170 -11 25 -1 53 -2 63 -3 31 -2 22 -58 -17 -97 -40 -40 -48 -41
-101 -14 -48 24 -146 28 -165 5 -16 -19 -4 -52 26 -72 20 -12 41 -15 100 -10
80 6 81 6 115 -51 36 -61 130 -77 272 -47 134 28 177 79 177 212 0 107 -13
149 -53 170 -29 16 -82 19 -512 26 -264 4 -545 9 -625 12 l-145 4 -48 -34z"/>
<path d="M6754 5849 c-17 -18 -16 -23 9 -84 15 -36 27 -72 27 -81 0 -43 32
-74 118 -115 48 -23 110 -59 137 -79 92 -67 66 -64 481 -71 l381 -6 47 -26 46
-26 -1 117 0 117 -137 67 c-85 42 -164 73 -209 83 -40 8 -123 39 -185 68
l-113 52 -292 1 c-275 1 -293 0 -309 -17z"/>
<path d="M7630 5851 c17 -33 58 -59 209 -133 80 -40 149 -74 154 -76 4 -2 7
48 7 112 l0 116 -190 0 c-185 0 -190 -1 -180 -19z"/>
<path d="M292 5568 c-8 -25 -10 -201 -3 -249 1 -9 72 -38 121 -49 74 -16 206
-13 224 6 30 29 18 56 -52 124 -57 54 -70 73 -75 107 -4 23 -14 48 -22 57 -21
20 -79 36 -137 36 -44 0 -47 -2 -56 -32z"/>
<path d="M5203 5575 c-43 -18 -52 -54 -24 -94 24 -33 94 -71 133 -71 52 0 107
72 94 124 -12 49 -130 73 -203 41z"/>
<path d="M3784 5471 c-28 -12 -74 -68 -74 -91 0 -32 42 -68 88 -75 39 -6 45
-4 72 25 37 40 58 107 38 126 -17 16 -97 26 -124 15z"/>
<path d="M6657 5365 c-75 -14 -101 -31 -117 -80 -16 -49 7 -98 59 -124 54 -28
71 -27 143 11 l60 31 35 -19 c53 -28 67 -55 59 -118 -9 -76 6 -109 65 -146 27
-16 49 -35 49 -40 0 -6 -14 -37 -31 -70 -34 -66 -32 -75 22 -138 47 -53 40
-79 -35 -134 -35 -25 -73 -49 -85 -53 -31 -10 -61 11 -61 43 0 40 -17 58 -82
86 -52 23 -58 29 -68 68 -27 102 -17 93 -98 90 -120 -5 -146 27 -90 111 44 66
58 108 58 169 0 82 -57 118 -168 105 -42 -4 -53 -12 -101 -63 -80 -86 -91
-116 -91 -261 0 -141 -5 -133 110 -177 212 -81 222 -87 270 -159 63 -93 110
-125 225 -152 42 -9 53 -17 66 -45 21 -44 45 -60 88 -60 81 1 173 74 201 160
17 50 21 53 79 52 100 -2 134 27 147 126 13 104 -36 192 -141 252 -67 38 -72
53 -55 170 17 121 10 148 -56 219 -41 44 -70 65 -110 80 -30 12 -81 34 -114
51 -66 34 -114 37 -233 15z"/>
<path d="M1295 5356 c-16 -8 -50 -38 -74 -66 -30 -35 -63 -61 -100 -78 -92
-42 -219 -129 -236 -161 -21 -41 -19 -94 3 -114 33 -30 244 -13 316 25 17 9
18 7 13 -24 -4 -18 -9 -71 -13 -118 -6 -82 -6 -87 20 -116 37 -44 84 -64 154
-64 69 0 101 19 131 78 25 50 35 125 20 154 -6 13 -33 44 -60 69 -27 25 -49
53 -49 61 0 8 14 36 31 62 44 66 49 122 16 178 -30 50 -93 113 -122 121 -11 4
-33 0 -50 -7z"/>
<path d="M7803 5329 c-19 -19 -16 -63 5 -81 86 -79 82 -73 81 -135 -2 -102 -6
-108 -75 -108 -40 0 -67 -6 -84 -17 -31 -22 -54 -23 -90 -2 -38 23 -78 12 -86
-23 -9 -33 26 -102 71 -142 45 -39 173 -108 215 -116 45 -8 113 17 140 53 19
23 20 41 20 292 l0 268 -57 6 c-32 3 -74 8 -93 12 -22 3 -40 1 -47 -7z"/>
<path d="M2918 5303 c-39 -6 -58 -39 -58 -100 0 -74 -14 -98 -74 -126 -66 -31
-116 -87 -116 -128 0 -25 14 -46 73 -106 85 -89 114 -105 183 -107 64 -1 76 9
177 144 112 149 121 169 125 280 4 84 2 98 -16 120 -19 24 -25 25 -144 26 -67
1 -135 0 -150 -3z"/>
<path d="M2564 5286 c-66 -29 -56 -146 15 -176 44 -18 140 -16 178 3 62 33 90
97 63 147 -6 11 -27 24 -48 30 -52 14 -171 12 -208 -4z"/>
<path d="M7402 5254 c-34 -23 -27 -60 24 -130 78 -111 127 -120 212 -41 77 71
90 87 98 121 10 47 -6 53 -167 59 -121 5 -149 4 -167 -9z"/>
<path d="M23 5215 c-23 -16 -23 -20 -23 -210 0 -189 1 -194 22 -209 50 -35
108 -3 137 75 21 56 56 67 66 19 9 -40 119 -167 166 -191 29 -14 38 -26 43
-53 8 -43 36 -60 81 -52 53 10 85 56 85 120 0 81 22 103 110 112 61 6 74 10
95 36 29 35 32 68 8 96 -27 32 -195 163 -223 173 -37 15 -95 1 -215 -52 -60
-27 -118 -49 -127 -49 -23 0 -43 32 -63 100 -8 30 -21 63 -28 72 -20 25 -106
34 -134 13z"/>
<path d="M4496 5030 c-26 -17 -90 -74 -142 -127 -77 -78 -97 -105 -109 -146
-17 -58 -20 -169 -5 -197 16 -30 117 -92 163 -101 23 -4 58 -4 77 0 32 6 35
10 38 48 2 22 -6 78 -17 123 -12 46 -21 91 -21 100 0 21 37 40 137 70 59 18
75 19 95 9 13 -6 26 -17 30 -23 13 -19 9 -118 -7 -176 -30 -113 -12 -152 69
-146 61 5 80 35 72 114 l-7 63 59 57 c65 62 78 95 67 165 -17 101 -71 142
-211 156 -49 5 -106 17 -126 25 -58 25 -107 20 -162 -14z"/>
<path d="M6674 4975 c-3 -8 8 -36 25 -62 21 -31 31 -59 31 -84 0 -40 11 -49
59 -49 59 0 68 53 19 111 -18 21 -43 52 -56 68 -25 33 -68 42 -78 16z"/>
<path d="M1873 4965 c-34 -15 -58 -45 -68 -87 -5 -21 3 -48 33 -110 22 -46 52
-108 66 -140 46 -97 138 -174 217 -179 57 -4 94 0 112 14 15 11 16 23 8 112
-10 104 -5 129 27 118 31 -11 54 -38 94 -110 46 -84 101 -136 167 -158 141
-46 241 -18 241 69 0 30 -33 67 -149 166 -49 42 -53 49 -60 103 -7 49 -14 64
-47 98 -88 91 -155 91 -219 -1 -32 -46 -70 -70 -113 -70 -35 0 -60 26 -96 98
-41 80 -56 92 -123 92 -32 -1 -72 -7 -90 -15z"/>
<path d="M3363 4848 c-32 -36 -81 -128 -93 -179 -10 -38 -9 -52 3 -75 36 -69
108 -104 216 -104 l66 0 58 63 c100 105 105 137 35 190 -47 36 -224 127 -246
127 -10 0 -28 -10 -39 -22z"/>
<path d="M5091 4791 c-16 -16 -21 -33 -21 -72 0 -67 17 -100 102 -200 68 -82
98 -132 98 -164 0 -9 -11 -27 -25 -41 -23 -22 -29 -24 -93 -18 l-68 7 -29 -34
c-15 -19 -39 -59 -52 -89 -43 -99 -47 -104 -116 -140 -118 -61 -157 -120 -108
-164 35 -32 82 -31 159 3 49 21 86 31 121 31 90 0 137 30 162 105 13 38 53 83
134 152 l38 33 -7 73 c-8 90 -5 94 94 106 80 10 111 28 148 81 27 40 28 81 3
135 -21 46 -45 69 -81 80 -14 4 -88 34 -165 68 -110 47 -154 61 -206 65 -58 4
-69 2 -88 -17z"/>
<path d="M3858 4688 c-18 -14 -96 -118 -119 -159 -10 -18 -14 -68 -14 -189 0
-180 5 -158 -73 -304 -36 -66 -41 -122 -14 -155 14 -17 29 -21 88 -22 82 -2
114 12 166 69 79 87 111 257 85 444 -10 70 -14 145 -10 198 3 63 1 90 -9 103
-17 23 -78 32 -100 15z"/>
<path d="M980 4667 c-14 -7 -38 -22 -54 -33 -20 -13 -56 -21 -114 -25 -119
-10 -128 -20 -113 -128 13 -99 28 -129 101 -206 32 -33 69 -84 84 -112 21 -43
31 -53 52 -53 66 0 84 40 84 186 0 123 3 134 40 134 16 0 35 7 44 15 31 31 33
169 2 210 -16 23 -93 30 -126 12z"/>
<path d="M196 4614 c-9 -8 -30 -37 -47 -62 -18 -26 -48 -64 -67 -84 -35 -37
-35 -38 -44 -164 -8 -107 -7 -139 8 -198 9 -40 26 -82 39 -96 40 -44 45 -66
43 -162 -3 -84 0 -98 25 -150 32 -65 51 -76 86 -50 74 55 83 115 28 195 -37
54 -37 54 -23 95 12 34 13 59 6 125 -15 130 -13 236 5 243 9 4 42 -11 78 -34
92 -60 115 -69 132 -51 17 17 29 100 20 140 -5 21 -22 39 -60 63 -30 20 -67
55 -85 83 -41 60 -100 123 -116 123 -7 0 -20 -7 -28 -16z"/>
<path d="M5924 4551 c-36 -16 -110 -107 -152 -188 -52 -100 -61 -156 -34 -214
23 -53 41 -69 109 -104 72 -35 141 -43 170 -19 20 17 21 23 11 59 -9 35 -8 46
10 82 23 44 49 59 86 49 29 -7 126 -122 165 -196 39 -73 40 -120 4 -197 -25
-54 -27 -68 -27 -193 -1 -164 -5 -172 -118 -237 -99 -58 -128 -91 -128 -145 0
-34 7 -47 39 -79 63 -63 95 -53 259 80 110 89 136 125 152 214 13 64 29 81
128 132 70 37 77 43 80 73 2 19 -4 54 -12 80 -23 66 -20 98 15 148 37 55 53
97 45 127 -6 26 -70 75 -176 137 -41 24 -104 72 -140 106 -73 71 -118 94 -185
94 -67 0 -99 21 -135 89 -18 33 -42 69 -54 81 -26 24 -81 34 -112 21z"/>
<path d="M3128 4528 c-8 -7 -25 -30 -37 -50 -12 -21 -41 -54 -64 -73 -55 -47
-97 -111 -97 -147 0 -40 14 -63 77 -131 75 -82 94 -122 86 -186 -6 -49 -5 -52
34 -88 146 -139 205 -176 285 -177 60 -1 61 -1 104 48 89 102 85 146 -18 188
-86 34 -125 64 -150 113 -19 35 -20 51 -14 151 l7 112 -41 79 c-22 43 -40 90
-40 105 0 52 -90 90 -132 56z"/>
<path d="M1435 4492 c-33 -10 -70 -24 -82 -30 -27 -15 -53 -51 -53 -73 0 -34
82 -98 173 -136 62 -25 97 -47 122 -75 19 -21 35 -43 35 -49 0 -6 51 -64 114
-129 134 -138 138 -146 107 -267 -24 -92 -26 -139 -10 -215 22 -99 112 -157
224 -144 60 7 99 33 103 70 3 20 -8 39 -43 79 -25 28 -57 76 -72 105 l-26 53
22 104 c26 121 22 137 -48 193 -47 38 -108 116 -142 181 -16 31 -25 70 -30
137 -8 110 -30 153 -93 186 -57 30 -215 35 -301 10z"/>
<path d="M7617 4456 c-90 -32 -192 -124 -203 -181 -9 -52 10 -109 41 -123 15
-7 74 -12 133 -12 63 -1 122 -6 144 -14 66 -24 157 -89 174 -125 44 -91 -33
-258 -150 -326 -23 -13 -85 -38 -139 -56 -84 -26 -101 -36 -118 -63 -40 -66
-11 -142 69 -179 59 -27 190 -29 237 -5 38 20 145 132 145 152 0 8 11 23 25
34 l25 20 0 365 0 364 -57 7 c-101 12 -133 26 -172 77 -37 47 -78 79 -103 79
-7 -1 -30 -7 -51 -14z"/>
<path d="M4356 4421 c-15 -16 -21 -45 -27 -114 -6 -74 -14 -104 -38 -151 -39
-75 -39 -111 -1 -162 21 -28 30 -50 30 -81 0 -63 15 -90 62 -114 32 -17 66
-24 130 -27 108 -5 148 2 182 33 49 45 41 60 -132 248 -49 54 -96 112 -103
129 -12 28 -11 32 10 49 19 15 40 19 113 19 110 0 128 8 128 59 0 43 -12 57
-80 92 -33 17 -65 24 -120 26 -41 1 -89 5 -105 8 -23 5 -35 2 -49 -14z"/>
<path d="M3471 4305 c-17 -20 -31 -47 -31 -61 0 -50 93 -111 126 -83 36 29 -3
179 -47 179 -9 0 -31 -16 -48 -35z"/>
<path d="M557 4242 c-21 -23 -22 -90 -2 -156 22 -73 19 -121 -10 -164 -33 -48
-35 -136 -5 -174 21 -28 135 -91 192 -106 66 -18 67 -14 58 208 -11 268 -28
324 -118 381 -53 33 -92 37 -115 11z"/>
<path d="M1183 4158 c-22 -11 -73 -99 -73 -126 0 -8 -16 -49 -35 -92 -19 -43
-35 -89 -35 -102 0 -33 95 -181 153 -238 25 -25 55 -64 66 -86 22 -45 90 -101
162 -134 31 -14 66 -20 121 -20 74 0 78 1 127 40 55 43 76 71 86 110 9 39 -13
59 -77 70 -84 13 -157 54 -229 126 l-63 64 -4 67 c-3 47 -10 74 -22 88 -23 26
-40 87 -40 148 0 37 -5 53 -25 72 -26 27 -72 32 -112 13z"/>
<path d="M7282 4148 c-5 -7 -19 -32 -30 -54 -12 -23 -53 -70 -92 -105 -103
-91 -103 -104 5 -219 34 -36 78 -91 98 -123 20 -31 40 -57 44 -58 50 -6 149
-2 161 7 26 19 18 86 -17 151 -17 31 -31 63 -31 71 0 8 18 31 39 51 46 43 58
79 43 130 -30 97 -179 199 -220 149z"/>
<path d="M2414 4120 c-52 -21 -98 -128 -108 -252 -9 -103 2 -122 109 -193 47
-31 94 -69 106 -83 25 -33 21 -59 -26 -162 -38 -83 -42 -103 -32 -142 15 -55
240 -231 297 -231 34 0 65 24 87 67 16 30 16 30 -3 251 -6 72 -4 87 20 146 34
86 39 197 12 249 -64 119 -192 258 -315 342 -28 19 -109 23 -147 8z"/>
<path d="M5664 4031 c-41 -25 -85 -96 -146 -238 -75 -173 -74 -205 6 -337 14
-22 34 -77 45 -123 24 -100 47 -135 101 -157 102 -41 194 2 221 104 25 93 2
133 -124 228 -111 82 -123 141 -52 246 60 87 84 184 61 240 -9 22 -25 40 -41
46 -34 13 -35 13 -71 -9z"/>
<path d="M381 4021 c-31 -31 -37 -84 -14 -123 39 -68 103 -36 103 52 0 77 -46
114 -89 71z"/>
<path d="M1530 3932 c-19 -15 -22 -24 -16 -53 16 -78 72 -147 109 -134 18 8
22 19 32 88 6 45 4 50 -28 82 -39 39 -64 43 -97 17z"/>
<path d="M6035 3871 c-78 -47 -109 -127 -65 -171 25 -25 33 -25 82 2 53 30 82
79 75 125 -11 64 -38 78 -92 44z"/>
<path d="M5924 3609 c-19 -21 -18 -21 4 -39 32 -27 149 -44 201 -30 22 6 41
17 41 24 0 19 -132 66 -184 66 -31 0 -48 -6 -62 -21z"/>
<path d="M237 3556 c-79 -35 -104 -52 -190 -128 l-48 -43 3 -168 3 -169 26 21
c15 11 30 33 34 48 13 55 37 92 76 117 21 15 50 44 64 66 14 22 31 40 39 40 8
0 53 16 100 36 78 33 136 77 136 104 0 16 -62 80 -91 96 -41 21 -65 18 -152
-20z"/>
<path d="M3763 3579 c-23 -7 -40 -22 -58 -53 -14 -23 -25 -48 -25 -55 0 -7 34
-72 75 -144 65 -115 90 -168 137 -299 12 -32 47 -46 139 -54 66 -7 67 -6 82
22 27 54 28 86 12 288 -18 221 -23 237 -86 268 -69 35 -204 48 -276 27z"/>
<path d="M6876 3559 c-37 -29 -48 -54 -56 -131 -4 -37 -15 -80 -24 -94 -10
-14 -48 -45 -86 -70 -82 -53 -100 -76 -100 -127 0 -33 8 -48 50 -93 33 -37 51
-67 55 -92 14 -79 37 -131 71 -162 65 -57 147 -32 194 60 24 48 78 95 146 127
75 35 145 114 180 203 26 68 27 72 11 104 -13 27 -28 38 -79 58 -63 23 -63 24
-103 103 -37 73 -45 82 -94 108 -67 33 -127 36 -165 6z"/>
<path d="M4996 3513 c-4 -4 -60 -6 -125 -5 -140 4 -280 -12 -338 -38 -62 -27
-78 -64 -78 -180 0 -62 6 -115 18 -152 l18 -58 42 0 c49 0 121 31 209 91 112
76 166 82 217 23 60 -68 67 -230 15 -389 -31 -95 -43 -110 -186 -243 -56 -51
-91 -131 -92 -212 -1 -50 1 -56 26 -68 70 -33 301 51 360 132 36 50 65 145 83
268 10 71 24 120 54 187 40 89 41 94 41 202 0 69 -6 134 -16 173 -36 141 -137
276 -207 276 -19 0 -37 -3 -41 -7z"/>
<path d="M933 3468 c-55 -14 -63 -37 -63 -178 0 -137 18 -237 46 -257 23 -17
27 -17 55 6 19 15 23 30 26 82 3 75 27 145 53 159 10 6 32 10 48 10 16 0 43 5
61 11 44 15 91 4 148 -35 27 -18 68 -43 92 -55 28 -15 53 -39 73 -72 34 -54
52 -60 92 -28 49 38 37 62 -65 129 -50 33 -95 60 -100 60 -5 0 -42 16 -82 35
-39 19 -77 35 -83 35 -6 0 -17 7 -24 15 -7 8 -28 17 -49 21 -20 4 -58 18 -86
32 -65 32 -102 41 -142 30z"/>
<path d="M3310 3445 c-32 -17 -100 -135 -139 -243 -17 -45 -37 -95 -46 -112
-25 -48 -19 -111 14 -156 37 -51 61 -72 148 -129 40 -26 75 -50 78 -55 2 -4
32 -18 65 -30 99 -37 180 -4 180 73 0 37 -16 62 -91 143 -96 103 -99 160 -13
230 57 47 94 109 94 159 0 30 -7 44 -34 69 -59 57 -196 84 -256 51z"/>
<path d="M555 3293 c-67 -35 -156 -125 -181 -182 -32 -71 -47 -87 -116 -122
-44 -22 -59 -36 -63 -57 -10 -47 -20 -57 -60 -59 -44 -1 -55 -14 -55 -64 0
-39 48 -122 81 -140 32 -16 51 -4 129 86 52 59 86 88 110 96 19 6 58 26 86 45
28 18 75 43 105 57 30 13 74 36 98 51 l44 28 -7 60 c-9 88 -43 196 -66 208
-27 14 -70 12 -105 -7z"/>
<path d="M1785 3135 c-21 -20 -25 -34 -25 -83 0 -91 13 -115 85 -162 70 -46
120 -59 156 -39 13 7 49 20 81 30 62 18 58 19 148 -35 25 -15 58 -32 74 -39
22 -9 40 -36 82 -119 61 -121 105 -178 138 -178 38 0 53 29 59 115 4 44 11
114 17 155 10 73 10 76 -17 114 -16 22 -50 54 -77 73 -44 30 -55 33 -122 33
-56 0 -81 5 -106 20 -27 16 -51 20 -134 20 -140 0 -159 5 -192 51 -48 69 -123
88 -167 44z"/>
<path d="M1174 3138 c-33 -16 -47 -49 -35 -81 20 -53 81 -137 113 -157 41 -25
99 -26 128 -2 48 39 35 179 -21 226 -26 22 -40 26 -97 25 -37 0 -77 -5 -88
-11z"/>
<path d="M7486 3110 c-46 -15 -76 -49 -76 -87 0 -70 40 -113 159 -173 116 -58
138 -77 162 -139 31 -78 32 -212 4 -260 -29 -50 -77 -71 -158 -71 -100 0 -154
-37 -171 -116 -14 -65 74 -124 166 -110 25 4 83 29 138 61 52 30 139 73 193
96 l97 41 0 170 0 169 -46 72 c-94 146 -227 287 -307 329 -45 23 -120 31 -161
18z"/>
<path d="M1567 3052 c-59 -65 -72 -177 -32 -272 26 -63 33 -124 14 -136 -7 -4
-43 -6 -80 -5 -38 1 -77 -3 -87 -8 -30 -16 -45 -64 -40 -132 4 -54 8 -66 36
-90 38 -34 59 -36 112 -9 22 11 50 20 63 20 13 0 50 -9 82 -20 65 -22 135 -26
153 -8 32 32 -3 168 -43 168 -23 0 -19 44 10 100 39 76 34 115 -20 170 -38 38
-49 59 -66 122 -29 106 -65 141 -102 100z"/>
<path d="M4753 3048 c-18 -22 -25 -88 -13 -123 13 -39 64 -69 92 -54 25 13 38
42 38 84 0 47 -13 71 -50 90 -35 18 -54 19 -67 3z"/>
<path d="M4409 2997 c-98 -66 -107 -227 -13 -227 19 0 55 -5 79 -11 62 -16 93
-6 111 36 30 73 12 174 -38 209 -33 24 -99 20 -139 -7z"/>
<path d="M866 2959 c-14 -17 -26 -37 -26 -45 0 -29 34 -80 96 -146 56 -57 64
-71 64 -105 1 -78 16 -111 85 -186 73 -78 141 -123 173 -113 28 9 45 58 40
115 -4 36 -17 67 -54 124 -27 41 -61 96 -76 121 -15 25 -48 60 -74 78 -90 63
-104 78 -104 112 0 39 -35 76 -72 76 -17 0 -35 -11 -52 -31z"/>
<path d="M5663 2906 c-183 -58 -203 -187 -49 -323 70 -62 90 -63 142 -11 23
24 64 61 89 83 88 74 132 164 106 213 -24 45 -193 67 -288 38z"/>
<path d="M6215 2881 c-41 -10 -107 -45 -127 -67 -26 -29 -39 -75 -32 -108 4
-19 31 -55 71 -94 100 -98 121 -168 88 -292 -30 -113 -11 -145 84 -145 120 1
211 81 219 192 4 62 -40 275 -79 379 -44 118 -116 161 -224 135z"/>
<path d="M7294 2829 c-35 -10 -128 -104 -173 -174 -35 -55 -39 -96 -16 -153
23 -53 52 -81 120 -113 113 -55 206 -32 236 58 19 57 -9 343 -36 373 -20 22
-75 26 -131 9z"/>
<path d="M3763 2809 c-15 -5 -24 -20 -29 -46 -4 -21 -11 -46 -16 -55 -13 -27
-62 -48 -112 -48 -71 0 -98 -43 -56 -88 17 -18 32 -22 88 -22 37 0 110 7 162
16 52 9 114 16 137 16 35 -1 45 3 62 27 30 42 26 66 -18 109 -64 62 -173 108
-218 91z"/>
<path d="M1952 2772 c-26 -26 -37 -83 -24 -121 6 -16 33 -58 60 -93 28 -35 55
-82 61 -105 11 -40 17 -45 76 -73 48 -22 79 -30 122 -30 51 0 64 -5 132 -49
51 -33 102 -56 154 -70 92 -25 111 -26 127 -6 24 29 -13 95 -99 179 -43 42
-83 76 -88 76 -6 0 -30 -13 -54 -30 -105 -71 -229 -8 -229 117 0 44 -5 57 -35
93 -19 23 -35 46 -35 50 0 14 -87 70 -118 76 -22 5 -35 1 -50 -14z"/>
<path d="M623 2720 c-129 -58 -274 -183 -293 -250 -14 -48 -13 -164 2 -194 14
-32 45 -53 90 -61 31 -6 41 -2 69 23 l34 30 2 114 c2 62 3 119 3 127 0 7 23
-6 53 -31 108 -93 163 -110 207 -63 20 22 22 31 17 84 -9 81 -44 170 -83 209
-37 37 -45 38 -101 12z"/>
<path d="M2899 2704 c-26 -15 -52 -37 -58 -51 -6 -13 -11 -69 -11 -124 0 -104
-6 -126 -46 -170 -30 -32 -43 -139 -22 -179 32 -60 238 -98 382 -71 51 9 66
18 125 72 78 74 90 92 91 142 0 41 -4 46 -97 112 -41 30 -78 68 -112 117 -28
40 -61 88 -73 106 -24 34 -85 72 -115 72 -10 0 -39 -12 -64 -26z"/>
<path d="M0 2398 l1 -273 22 26 c60 71 133 168 149 199 24 46 22 85 -7 147
-24 53 -131 173 -153 173 -9 0 -12 -67 -12 -272z"/>
<path d="M4314 2629 c-55 -15 -78 -51 -85 -132 -3 -47 -15 -94 -34 -136 -22
-47 -26 -67 -18 -80 12 -19 74 -29 196 -30 105 -1 152 18 196 80 58 79 50 139
-27 211 -75 70 -165 104 -228 87z"/>
<path d="M5478 2460 c-79 -52 -126 -145 -114 -226 12 -88 120 -254 182 -280
66 -28 158 -13 206 33 32 30 34 50 13 131 -8 31 -21 101 -30 155 -25 161 -66
217 -160 217 -41 0 -61 -6 -97 -30z"/>
<path d="M5908 2434 c-15 -8 -31 -26 -34 -40 -16 -63 26 -148 70 -142 56 8 88
136 46 178 -24 24 -45 25 -82 4z"/>
<path d="M856 2407 c-60 -65 -81 -121 -82 -227 -1 -52 -2 -104 -3 -115 0 -11
-26 -51 -56 -89 -54 -67 -55 -70 -55 -133 0 -66 -12 -103 -32 -103 -7 0 -25
12 -40 27 -26 25 -31 26 -76 17 -74 -15 -80 -11 -88 57 -4 39 -15 71 -30 92
-13 18 -28 43 -35 57 -12 28 -5 93 11 98 5 2 10 15 10 29 0 34 -49 80 -95 89
-75 14 -95 -21 -95 -174 0 -87 -5 -126 -20 -169 -30 -87 -27 -108 21 -143 23
-16 66 -42 94 -56 50 -24 55 -24 89 -10 l36 15 35 -55 c34 -53 84 -94 116 -94
9 0 33 14 54 30 21 17 46 30 56 30 10 0 47 -20 83 -45 43 -29 77 -45 96 -45
50 0 54 24 41 220 l-12 172 25 41 c13 23 60 81 104 129 97 105 107 136 73 245
-23 76 -57 118 -112 133 -57 17 -80 12 -113 -23z"/>
<path d="M6809 2363 c-14 -16 -42 -55 -64 -88 -22 -33 -56 -79 -77 -102 -52
-58 -52 -101 -3 -150 34 -34 38 -35 83 -29 127 18 188 19 220 2 45 -23 96 -20
128 7 21 18 28 35 32 75 4 50 3 53 -53 126 -31 41 -83 100 -115 130 -70 67
-110 74 -151 29z"/>
<path d="M3748 2237 c-26 -19 -81 -43 -125 -56 -185 -53 -256 -86 -289 -136
-25 -39 -3 -76 92 -155 140 -118 149 -142 74 -195 -49 -34 -66 -68 -57 -107
11 -43 50 -58 231 -89 94 -16 187 -33 207 -39 46 -13 77 -2 112 40 34 40 34
56 -2 138 -49 112 -55 146 -56 322 -1 184 -12 238 -55 282 -38 38 -74 36 -132
-5z"/>
<path d="M7965 2254 c-36 -28 -98 -56 -220 -101 -144 -52 -171 -74 -168 -137
4 -111 120 -228 209 -211 45 8 75 48 108 141 34 95 40 104 77 104 l29 0 0 110
c0 61 -3 110 -7 110 -5 0 -17 -8 -28 -16z"/>
<path d="M532 2153 c-45 -41 -53 -55 -58 -94 -5 -39 -3 -50 15 -68 31 -31 55
-26 95 21 49 57 68 127 46 169 -17 30 -42 23 -98 -28z"/>
<path d="M1302 2180 c-67 -15 -142 -87 -157 -152 -5 -17 1 -54 14 -98 34 -111
72 -115 173 -16 52 51 71 55 122 25 42 -24 64 -19 94 21 13 17 29 30 38 30 28
0 114 -50 115 -68 1 -9 1 -69 -1 -133 -2 -129 6 -157 60 -202 38 -32 91 -43
130 -27 16 7 47 36 70 64 38 50 40 57 40 120 0 80 -11 108 -81 208 -30 43 -70
103 -89 134 -62 100 -136 123 -284 89 -49 -11 -77 -13 -108 -6 -71 16 -101 19
-136 11z"/>
<path d="M6014 2161 c-52 -24 -110 -83 -125 -128 -33 -100 49 -203 161 -203
23 0 51 5 63 11 43 22 88 74 98 113 12 46 4 138 -17 177 -25 49 -108 63 -180
30z"/>
<path d="M2056 2147 c-19 -14 -19 -16 3 -96 30 -111 147 -351 172 -351 45 0
84 94 76 184 -9 94 3 101 60 39 57 -61 78 -73 133 -73 52 0 76 13 96 52 23 44
13 99 -26 148 -30 38 -35 40 -84 40 -29 0 -106 14 -172 30 -151 38 -232 47
-258 27z"/>
<path d="M4265 2085 c-51 -18 -95 -66 -95 -103 0 -18 16 -49 45 -86 25 -32 45
-62 45 -67 0 -5 -12 -37 -26 -72 -48 -117 -39 -236 21 -267 17 -8 32 -16 35
-18 2 -2 5 -31 5 -66 2 -128 78 -201 215 -208 l75 -3 3 31 c4 40 -23 157 -49
210 -12 26 -31 46 -49 54 -38 16 -45 50 -37 189 6 114 17 155 55 213 l24 37
-21 45 c-23 47 -69 88 -126 112 -42 17 -68 17 -120 -1z"/>
<path d="M4743 2043 c-40 -5 -73 -44 -73 -87 0 -50 46 -130 98 -173 67 -54 77
-68 102 -147 37 -116 53 -140 129 -190 72 -48 127 -59 172 -35 31 16 108 126
115 164 10 53 -25 112 -132 224 -51 54 -106 123 -121 152 -42 80 -77 99 -177
97 -45 0 -96 -3 -113 -5z"/>
<path d="M2752 1998 c-15 -15 -16 -83 0 -111 6 -12 39 -58 74 -102 34 -45 74
-106 87 -137 14 -31 43 -76 64 -100 67 -74 82 -98 93 -154 10 -47 9 -59 -8
-96 -11 -24 -25 -62 -31 -85 -16 -58 -46 -79 -127 -86 -163 -15 -207 -99 -114
-216 56 -71 107 -95 197 -96 69 0 73 2 107 34 33 32 36 40 36 92 0 49 8 71 61
175 78 152 78 149 -16 318 -36 64 -39 77 -44 170 -6 93 -9 105 -38 146 -56 80
-191 193 -290 244 -38 19 -36 19 -51 4z"/>
<path d="M7115 1981 c-83 -39 -132 -118 -174 -281 -12 -47 -24 -119 -27 -160
l-5 -75 40 45 c54 59 114 148 194 290 68 119 83 157 69 177 -14 22 -56 23 -97
4z"/>
<path d="M6605 1902 c-46 -29 -95 -90 -129 -162 -40 -85 -41 -147 -4 -210 15
-25 34 -76 44 -114 11 -44 27 -81 45 -100 24 -28 33 -31 86 -31 74 0 123 29
152 89 41 84 23 158 -58 225 -28 24 -54 54 -57 67 -3 13 4 65 16 114 21 84 21
92 6 115 -20 30 -58 33 -101 7z"/>
<path d="M7272 1814 c-6 -3 -33 -44 -60 -91 -34 -62 -80 -121 -165 -212 -65
-69 -122 -136 -128 -149 -5 -13 -9 -51 -9 -85 0 -34 -9 -99 -20 -145 -34 -141
-28 -152 82 -152 81 0 117 22 251 150 114 108 128 138 109 228 -6 30 -24 73
-38 94 l-27 38 39 45 c73 85 84 106 84 151 0 71 -70 147 -118 128z"/>
<path d="M1115 1763 c-42 -23 -53 -41 -60 -98 -11 -88 31 -152 119 -181 65
-21 120 -49 172 -86 42 -30 67 -30 79 0 14 37 25 193 15 213 -6 10 -38 33 -71
49 -33 17 -89 51 -125 75 -71 49 -84 52 -129 28z"/>
<path d="M4593 1733 c-18 -7 -16 -30 7 -88 11 -27 24 -69 30 -92 11 -45 32
-58 81 -51 21 3 24 9 27 56 2 42 -2 62 -24 103 -16 28 -35 54 -43 58 -24 12
-64 20 -78 14z"/>
<path d="M5560 1723 c-84 -30 -130 -81 -130 -144 0 -64 77 -129 170 -144 25
-4 66 -18 92 -31 56 -28 89 -30 116 -6 29 24 62 91 62 125 0 64 -70 150 -154
188 -39 18 -123 24 -156 12z"/>
<path d="M2561 1701 c-35 -35 -29 -58 33 -145 11 -16 22 -56 27 -108 10 -87
41 -168 65 -168 7 0 18 19 25 43 6 23 25 71 41 107 43 91 43 153 3 212 -31 43
-60 59 -138 73 -28 6 -39 3 -56 -14z"/>
<path d="M7770 1713 c-66 -12 -135 -38 -156 -58 -70 -70 -32 -230 69 -289 51
-30 169 -64 254 -72 l63 -7 0 210 c0 210 0 211 -22 217 -25 6 -169 6 -208 -1z"/>
<path d="M2194 1640 c-12 -4 -31 -20 -42 -35 -45 -56 -90 -256 -76 -340 15
-99 100 -166 221 -176 58 -5 82 -12 120 -37 122 -80 198 -100 243 -64 20 16
23 27 21 87 -4 133 -68 190 -204 182 -49 -3 -62 -8 -91 -36 -39 -38 -63 -36
-96 6 -30 39 -26 76 16 120 46 49 64 91 64 150 0 63 -26 105 -82 132 -48 23
-62 24 -94 11z"/>
<path d="M5995 1624 c-67 -25 -85 -49 -85 -115 0 -41 -12 -97 -41 -186 -30
-92 -43 -151 -47 -211 l-5 -83 40 -38 c72 -68 166 -77 248 -24 67 43 135 104
150 134 20 38 19 71 -5 154 -13 46 -20 100 -20 158 0 123 -29 177 -113 212
-44 18 -70 18 -122 -1z"/>
<path d="M0 1359 c0 -149 1 -160 17 -148 34 29 53 91 53 177 0 75 -2 85 -25
107 -13 14 -29 25 -35 25 -6 0 -10 -56 -10 -161z"/>
<path d="M1711 1495 c-59 -18 -146 -80 -171 -120 -23 -37 -26 -87 -7 -103 7
-6 39 -18 71 -26 71 -19 131 -9 189 31 65 45 87 78 87 132 0 68 -27 101 -83
100 -23 0 -62 -7 -86 -14z"/>
<path d="M3573 1393 c-67 -37 -119 -91 -150 -156 -17 -35 -52 -88 -77 -116
-52 -59 -60 -82 -52 -148 21 -177 29 -324 18 -348 -15 -33 -29 -32 -88 10 -27
19 -64 40 -82 46 -52 17 -62 2 -62 -100 0 -74 -3 -91 -20 -109 -12 -12 -29
-22 -39 -22 -25 0 -109 67 -152 120 -96 119 -102 120 -118 20 -23 -140 -8
-204 56 -242 34 -20 175 -58 215 -58 40 0 85 24 138 75 25 23 72 57 105 75 33
18 77 47 98 64 42 33 41 33 208 26 75 -3 149 26 149 58 0 10 -21 38 -46 62
-25 25 -57 64 -71 88 -39 65 -31 68 146 54 162 -14 218 -8 277 29 42 26 84
109 84 166 0 58 -19 91 -72 130 -25 18 -100 84 -167 147 -67 63 -137 121 -156
130 -43 21 -102 20 -142 -1z"/>
<path d="M4724 1396 c-77 -34 -52 -154 49 -243 59 -51 94 -66 146 -60 54 6
103 52 120 114 19 68 9 100 -44 145 -59 50 -203 74 -271 44z"/>
<path d="M300 1374 c-11 -28 -12 -25 53 -147 47 -88 47 -108 0 -144 -52 -39
-53 -39 -53 -120 0 -80 -5 -88 -63 -89 -51 0 -96 -45 -104 -101 -5 -39 -3 -42
78 -125 74 -75 90 -87 137 -98 65 -15 95 -8 110 25 13 29 6 49 -27 79 -28 25
-29 81 -2 96 11 5 32 7 48 4 20 -4 36 1 56 16 25 20 27 26 27 101 0 59 -5 93
-21 129 -26 61 -22 82 18 92 42 11 63 51 63 117 0 44 -5 56 -35 89 -19 22 -61
53 -94 71 -48 25 -71 31 -120 31 -57 0 -62 -2 -71 -26z"/>
<path d="M5383 1369 c-18 -5 -40 -20 -49 -33 -24 -38 -30 -128 -10 -180 9 -24
21 -69 26 -101 16 -99 68 -133 212 -142 101 -7 130 5 155 64 20 48 7 77 -74
167 -35 38 -63 74 -63 78 0 5 -12 34 -26 65 -21 44 -34 59 -68 74 -45 21 -56
21 -103 8z"/>
<path d="M1100 1288 c-14 -7 -94 -14 -177 -17 -180 -7 -192 -13 -201 -100 -8
-84 48 -191 99 -191 35 0 93 30 125 65 31 34 34 35 110 35 131 1 194 34 194
102 0 39 -23 96 -44 110 -16 11 -77 8 -106 -4z"/>
<path d="M1951 1074 c-29 -36 -27 -48 16 -94 54 -61 72 -68 96 -39 16 20 18
34 14 81 -3 31 -8 61 -12 67 -3 6 -26 11 -50 11 -35 0 -48 -5 -64 -26z"/>
<path d="M6551 1075 c-45 -38 -83 -127 -89 -207 -4 -59 -2 -72 22 -112 27 -46
115 -116 146 -116 9 0 25 6 36 14 16 12 19 25 17 92 -2 42 4 106 12 141 29
124 19 156 -62 197 -42 21 -46 21 -82 -9z"/>
<path d="M5025 1068 c-40 -9 -85 -42 -85 -63 0 -7 9 -24 21 -39 38 -49 135
-29 170 35 8 15 7 26 -5 43 -18 28 -47 35 -101 24z"/>
<path d="M7655 1056 c-155 -33 -267 -65 -287 -83 -21 -19 -23 -76 -7 -185 14
-98 6 -117 -61 -143 -53 -20 -53 -21 -112 -135 l-60 -115 -9 -129 c-5 -71 -8
-130 -7 -131 25 -20 152 -75 175 -75 31 0 80 44 147 133 16 20 59 60 97 87 83
60 98 81 115 165 20 93 40 127 147 241 111 119 137 173 137 282 0 98 -13 112
-98 111 -37 0 -116 -11 -177 -23z"/>
<path d="M1314 1041 c-21 -16 -55 -46 -75 -67 -33 -35 -37 -46 -44 -113 -11
-127 -29 -153 -147 -212 -53 -27 -91 -39 -119 -39 -39 0 -47 5 -113 75 -63 66
-76 75 -107 75 -44 0 -69 -25 -69 -67 0 -36 89 -220 120 -248 29 -26 141 -32
275 -15 118 16 134 21 202 66 29 19 79 48 110 64 116 57 156 130 157 285 1
115 -17 164 -74 203 -44 29 -69 28 -116 -7z"/>
<path d="M4316 997 c-13 -14 -34 -55 -45 -93 -26 -88 -39 -105 -103 -142 -70
-39 -108 -78 -108 -111 1 -34 60 -115 108 -145 21 -13 52 -41 69 -62 l31 -39
129 3 c70 2 142 7 160 13 38 12 90 69 99 107 16 72 39 126 70 163 42 51 48 74
40 152 -8 67 -33 134 -59 155 -11 10 -66 15 -191 18 l-176 5 -24 -24z"/>
<path d="M2219 873 c-75 -64 -77 -167 -5 -272 26 -37 27 -42 21 -142 l-6 -104
74 -85 c65 -76 77 -85 111 -88 23 -2 44 2 54 11 10 9 42 26 73 40 135 60 115
141 -59 231 -48 24 -96 54 -106 65 -19 21 -19 21 6 21 45 0 119 32 154 67 28
27 34 41 34 75 0 37 -6 47 -48 87 -119 114 -236 150 -303 94z"/>
<path d="M1924 850 c-34 -13 -115 -111 -144 -175 -34 -76 -104 -186 -158 -248
-23 -27 -42 -58 -42 -70 0 -12 16 -44 34 -72 19 -27 38 -66 41 -85 8 -44 19
-57 56 -65 66 -15 138 37 159 115 11 41 43 72 66 63 8 -3 34 -34 59 -69 49
-68 74 -82 118 -65 51 20 53 41 28 296 -18 180 -26 203 -116 308 -62 72 -71
78 -101 67z"/>
<path d="M5161 843 c-12 -11 -36 -62 -56 -123 -57 -168 -62 -176 -132 -226
-68 -48 -98 -92 -89 -129 9 -36 165 -177 259 -234 44 -27 46 -42 10 -71 -26
-20 -36 -21 -213 -18 -188 3 -230 -2 -230 -28 0 -12 61 -14 409 -14 l408 0 34
23 c19 12 40 35 47 50 29 61 -25 170 -122 247 -69 54 -76 65 -76 112 0 23 10
40 39 67 66 62 74 96 42 167 -58 129 -259 236 -330 177z"/>
<path d="M1 645 l0 -190 24 28 c26 30 51 101 61 177 7 52 -5 82 -55 140 l-30
35 0 -190z"/>
<path d="M7023 783 c-16 -16 -57 -65 -91 -110 -34 -45 -67 -85 -73 -88 -41
-26 -24 -129 35 -207 29 -38 35 -55 38 -104 3 -56 4 -59 28 -56 51 6 106 85
116 169 10 85 23 110 80 158 85 73 104 129 64 189 -48 74 -145 97 -197 49z"/>
<path d="M5693 746 c-24 -21 -27 -30 -25 -77 4 -93 22 -162 63 -230 35 -59 39
-72 39 -133 0 -37 5 -76 11 -87 6 -12 34 -31 62 -45 44 -20 68 -24 148 -24 89
0 99 -2 140 -29 53 -36 84 -64 105 -96 l16 -25 184 0 c153 0 184 2 184 14 0 8
18 27 39 43 57 40 65 58 63 140 -1 40 5 93 14 120 8 26 17 102 21 168 8 172
-13 203 -81 123 -50 -58 -58 -97 -54 -265 3 -142 2 -145 -21 -164 -13 -10 -39
-19 -57 -19 -30 0 -38 6 -64 48 -20 34 -45 57 -80 76 -61 33 -63 51 -20 133
33 61 39 120 17 163 -7 13 -39 45 -71 71 -82 67 -163 86 -286 70 -87 -12 -89
-12 -178 18 -108 37 -132 38 -169 7z"/>
<path d="M3787 480 c-57 -15 -133 -56 -157 -87 -17 -22 -21 -37 -17 -66 7 -51
30 -83 85 -118 36 -22 57 -29 96 -28 86 0 134 26 188 98 30 40 48 74 48 91 0
33 -31 75 -70 95 -37 19 -125 27 -173 15z"/>
<path d="M7905 439 c-103 -57 -125 -78 -125 -123 0 -42 48 -196 68 -218 12
-14 31 -18 84 -18 l68 0 0 205 c0 113 -1 205 -2 205 -2 -1 -43 -23 -93 -51z"/>
<path d="M176 407 c-14 -14 -27 -43 -31 -68 -4 -24 -18 -65 -31 -90 -22 -44
-84 -109 -104 -109 -6 0 -10 -31 -10 -70 l0 -70 230 0 c154 0 230 3 230 10 0
19 -32 73 -82 139 -48 64 -48 64 -48 142 0 93 -4 105 -41 124 -42 22 -86 19
-113 -8z"/>
<path d="M645 373 c-39 -10 -133 -82 -139 -106 -6 -24 6 -73 37 -152 8 -22 18
-57 22 -78 l6 -37 164 0 165 0 0 49 c0 35 -8 65 -29 103 -15 30 -31 76 -35
101 -5 35 -15 53 -38 73 -46 38 -110 58 -153 47z"/>
<path d="M4274 331 c-23 -10 -86 -60 -140 -110 -85 -78 -113 -97 -200 -136
-59 -26 -116 -45 -137 -45 -19 0 -71 14 -114 31 -64 26 -96 33 -178 37 -112 5
-133 13 -205 77 -54 48 -85 61 -122 50 -105 -32 -88 -118 39 -194 l69 -41 578
0 577 0 19 43 c10 23 21 67 25 97 3 30 14 76 22 102 14 41 15 49 2 64 -38 46
-161 59 -235 25z"/>
<path d="M1119 153 c-8 -9 -16 -47 -19 -85 l-5 -68 290 1 c276 0 289 1 265 17
-13 9 -49 39 -80 66 -115 101 -142 107 -221 43 -77 -62 -83 -63 -132 -18 -60
55 -82 65 -98 44z"/>
<path d="M2620 81 c-45 -9 -69 -23 -99 -55 l-24 -26 257 0 c252 0 257 0 246
20 -24 45 -264 84 -380 61z"/>
</g>
</svg>
